<?xml version="1.0" encoding="utf-8"?>
<svg version="1.1"
	 xmlns="http://www.w3.org/2000/svg"
	 xmlns:xlink="http://www.w3.org/1999/xlink"
	 viewBox="0 0 102 86">
	<g>
		<path d="M65.7,18.9c-4.1,0-7.3,3.3-7.3,7.3c0,4.1,3.3,7.3,7.3,7.3s7.3-3.3,7.3-7.3C73,22.2,69.8,18.9,65.7,18.9z M65.7,32
			c-3.2,0-5.7-2.6-5.7-5.7c0-3.2,2.6-5.7,5.7-5.7c3.2,0,5.7,2.6,5.7,5.7C71.4,29.4,68.9,32,65.7,32z"/>
		<path d="M68,27.4C68,27.2,68,27.1,67.9,27c-0.1-0.1-0.1-0.3-0.2-0.4c-0.1-0.1-0.2-0.2-0.3-0.3c-0.1-0.1-0.2-0.2-0.4-0.3
			c-0.1-0.1-0.3-0.2-0.4-0.2c-0.2-0.1-0.3-0.2-0.4-0.2c-0.2-0.1-0.3-0.1-0.4-0.2c-0.1,0-0.2-0.1-0.2-0.1c-0.1-0.1-0.2-0.1-0.2-0.1
			c-0.1-0.1-0.2-0.1-0.2-0.1c-0.1-0.1-0.1-0.1-0.2-0.2C65.1,25,65,25,65,24.9C65,24.8,65,24.7,65,24.7c0-0.1,0-0.2,0-0.3
			c0-0.1,0.1-0.2,0.1-0.2c0.1-0.1,0.1-0.2,0.1-0.2c0.1-0.1,0.1-0.1,0.2-0.2c0.1-0.1,0.2-0.1,0.3-0.1c0.1-0.1,0.2-0.1,0.3-0.1
			c0.1,0,0.1,0,0.2,0s0.1,0,0.2,0c0.1,0,0.2,0,0.3,0.1c0.1,0,0.2,0.1,0.3,0.1c0.1,0,0.2,0.1,0.2,0.1c0.1,0,0.2,0.1,0.2,0.1l0.3,0.1
			l0.1-0.3l0.1-0.8v-0.2l-0.2-0.1c-0.1,0-0.2-0.1-0.2-0.1c-0.1,0-0.1-0.1-0.2-0.1c-0.1,0-0.2-0.1-0.3-0.1c-0.1,0-0.2-0.1-0.3-0.1
			h-0.1v-1H65v1H65c-0.2,0.1-0.3,0.1-0.5,0.2c-0.2,0.1-0.3,0.2-0.4,0.3c-0.1,0.1-0.2,0.2-0.3,0.4c-0.1,0.1-0.2,0.3-0.2,0.4
			c-0.1,0.2-0.1,0.3-0.2,0.5c-0.1,0.2-0.1,0.4-0.1,0.5c0,0.2,0,0.3,0.1,0.4c0.1,0.2,0.1,0.3,0.2,0.4c0.1,0.1,0.2,0.3,0.2,0.4
			c0.1,0.1,0.2,0.2,0.3,0.3c0.1,0.1,0.2,0.2,0.4,0.3c0.1,0.1,0.3,0.2,0.4,0.2c0.2,0.1,0.3,0.2,0.4,0.2c0.2,0.1,0.3,0.1,0.4,0.2
			c0.1,0,0.2,0.1,0.2,0.1c0.1,0.1,0.2,0.1,0.2,0.1c0.1,0.1,0.1,0.1,0.2,0.1c0.1,0.1,0.1,0.1,0.2,0.2c0.1,0.1,0.1,0.1,0.1,0.2
			c0,0.1,0.1,0.2,0.1,0.3c0,0.1,0,0.2,0,0.3c0,0.1-0.1,0.2-0.1,0.2c-0.1,0.1-0.1,0.1-0.2,0.2c-0.1,0.1-0.1,0.1-0.2,0.2
			c-0.1,0.1-0.2,0.1-0.2,0.1c-0.1,0-0.2,0.1-0.3,0.1c-0.1,0-0.1,0-0.2,0c-0.1,0-0.2,0-0.2,0c-0.1,0-0.2,0-0.3,0
			c-0.1,0-0.2-0.1-0.3-0.1c-0.1,0-0.2-0.1-0.3-0.1c-0.1-0.1-0.2-0.1-0.3-0.1c-0.1,0-0.1-0.1-0.2-0.1c-0.1,0-0.1-0.1-0.2-0.1l-0.3-0.2
			l-0.1,0.4l-0.1,0.9v0.2l0.2,0.1c0.2-0.1,0.3,0,0.5,0.1c0.1,0.1,0.3,0.1,0.4,0.1c0.1,0.1,0.3,0.1,0.4,0.1c0.2,0.1,0.3,0.1,0.4,0.1
			h0.1v1h1.2v-1.1h0.1c0.2-0.1,0.3-0.1,0.5-0.2c0.2-0.1,0.3-0.2,0.4-0.3c0.1-0.1,0.2-0.2,0.3-0.4c0.1-0.1,0.2-0.3,0.3-0.4
			c0.1-0.2,0.1-0.3,0.2-0.5c0.1-0.2,0.1-0.3,0.1-0.5C68.1,27.6,68.1,27.5,68,27.4z"/>
		<path d="M62.2,34.5c-0.3-0.4-0.8-0.4-1.2-0.2l-8.1,6.5l-10.5-4.4c-0.3-0.1-0.6-0.1-0.8,0.1l-11.2,8c-0.4,0.3-0.5,0.8-0.2,1.1
			c0.2,0.3,0.4,0.4,0.7,0.4c0.2,0,0.3-0.1,0.5-0.2l10.9-7.8l10.5,4.4c0.3,0.1,0.6,0.1,0.8-0.1l8.5-6.7C62.4,35.4,62.4,34.9,62.2,34.5z"/>
		<path d="M73.9,62h-3.7V38.8c0-0.5-0.4-0.8-0.8-0.8H62c-0.5,0-0.8,0.4-0.8,0.8V62h-2.7V46.8c0-0.5-0.4-0.8-0.8-0.8h-7.4
			c-0.5,0-0.8,0.4-0.8,0.8V62h-2.7V45.6c0-0.5-0.4-0.8-0.8-0.8h-7.4c-0.5,0-0.8,0.4-0.8,0.8V62h-2.7V50.3c0-0.5-0.4-0.8-0.8-0.8h-7.4
			c-0.5,0-0.8,0.4-0.8,0.8V62h-3.8c-0.5,0-0.8,0.4-0.8,0.8c0,0.5,0.4,0.8,0.8,0.8h51.6c0.5,0,0.8-0.4,0.8-0.8
			C74.7,62.4,74.4,62,73.9,62z M33.4,62h-5.8V51.1h5.8V62z M45.2,62h-5.8V46.4h5.8V62z M56.9,62h-5.8V47.6h5.8V62z M68.6,62h-5.8V39.6h5.8V62z"/>
		<path fill="#01347B" stroke="none" d="M65.7,18.9c-4.1,0-7.3,3.3-7.3,7.3c0,4.1,3.3,7.3,7.3,7.3s7.3-3.3,7.3-7.3C73,22.2,69.8,18.9,65.7,18.9z
			M65.7,32c-3.2,0-5.7-2.6-5.7-5.7c0-3.2,2.6-5.7,5.7-5.7c3.2,0,5.7,2.6,5.7,5.7C71.4,29.4,68.9,32,65.7,32z"/>
		<path fill="#01347B" stroke="none" d="M68,27.4C68,27.2,68,27.1,67.9,27c-0.1-0.1-0.1-0.3-0.2-0.4c-0.1-0.1-0.2-0.2-0.3-0.3
			c-0.1-0.1-0.2-0.2-0.4-0.3c-0.1-0.1-0.3-0.2-0.4-0.2c-0.2-0.1-0.3-0.2-0.4-0.2c-0.2-0.1-0.3-0.1-0.4-0.2c-0.1,0-0.2-0.1-0.2-0.1
			c-0.1-0.1-0.2-0.1-0.2-0.1c-0.1-0.1-0.2-0.1-0.2-0.1c-0.1-0.1-0.1-0.1-0.2-0.2C65.1,25,65,25,65,24.9C65,24.8,65,24.7,65,24.7
			c0-0.1,0-0.2,0-0.3c0-0.1,0.1-0.2,0.1-0.2c0.1-0.1,0.1-0.2,0.1-0.2c0.1-0.1,0.1-0.1,0.2-0.2c0.1-0.1,0.2-0.1,0.3-0.1
			c0.1-0.1,0.2-0.1,0.3-0.1c0.1,0,0.1,0,0.2,0s0.1,0,0.2,0c0.1,0,0.2,0,0.3,0.1c0.1,0,0.2,0.1,0.3,0.1c0.1,0,0.2,0.1,0.2,0.1
			c0.1,0,0.2,0.1,0.2,0.1l0.3,0.1l0.1-0.3l0.1-0.8v-0.2l-0.2-0.1c-0.1,0-0.2-0.1-0.2-0.1c-0.1,0-0.1-0.1-0.2-0.1
			c-0.1,0-0.2-0.1-0.3-0.1c-0.1,0-0.2-0.1-0.3-0.1h-0.1v-1H65v1H65c-0.2,0.1-0.3,0.1-0.5,0.2c-0.2,0.1-0.3,0.2-0.4,0.3
			c-0.1,0.1-0.2,0.2-0.3,0.4c-0.1,0.1-0.2,0.3-0.2,0.4c-0.1,0.2-0.1,0.3-0.2,0.5c-0.1,0.2-0.1,0.4-0.1,0.5c0,0.2,0,0.3,0.1,0.4
			c0.1,0.2,0.1,0.3,0.2,0.4c0.1,0.1,0.2,0.3,0.2,0.4c0.1,0.1,0.2,0.2,0.3,0.3c0.1,0.1,0.2,0.2,0.4,0.3c0.1,0.1,0.3,0.2,0.4,0.2
			c0.2,0.1,0.3,0.2,0.4,0.2c0.2,0.1,0.3,0.1,0.4,0.2c0.1,0,0.2,0.1,0.2,0.1c0.1,0.1,0.2,0.1,0.2,0.1c0.1,0.1,0.1,0.1,0.2,0.1
			c0.1,0.1,0.1,0.1,0.2,0.2c0.1,0.1,0.1,0.1,0.1,0.2c0,0.1,0.1,0.2,0.1,0.3c0,0.1,0,0.2,0,0.3c0,0.1-0.1,0.2-0.1,0.2
			c-0.1,0.1-0.1,0.1-0.2,0.2c-0.1,0.1-0.1,0.1-0.2,0.2c-0.1,0.1-0.2,0.1-0.2,0.1c-0.1,0-0.2,0.1-0.3,0.1c-0.1,0-0.1,0-0.2,0
			c-0.1,0-0.2,0-0.2,0c-0.1,0-0.2,0-0.3,0c-0.1,0-0.2-0.1-0.3-0.1c-0.1,0-0.2-0.1-0.3-0.1c-0.1-0.1-0.2-0.1-0.3-0.1
			c-0.1,0-0.1-0.1-0.2-0.1c-0.1,0-0.1-0.1-0.2-0.1l-0.3-0.2l-0.1,0.4l-0.1,0.9v0.2l0.2,0.1c0.2-0.1,0.3,0,0.5,0.1
			c0.1,0.1,0.3,0.1,0.4,0.1c0.1,0.1,0.3,0.1,0.4,0.1c0.2,0.1,0.3,0.1,0.4,0.1h0.1v1h1.2v-1.1h0.1c0.2-0.1,0.3-0.1,0.5-0.2
			c0.2-0.1,0.3-0.2,0.4-0.3c0.1-0.1,0.2-0.2,0.3-0.4c0.1-0.1,0.2-0.3,0.3-0.4c0.1-0.2,0.1-0.3,0.2-0.5c0.1-0.2,0.1-0.3,0.1-0.5
			C68.1,27.6,68.1,27.5,68,27.4z"/>
		<path fill="#01347B" stroke="none" d="M62.2,34.5c-0.3-0.4-0.8-0.4-1.2-0.2l-8.1,6.5l-10.5-4.4c-0.3-0.1-0.6-0.1-0.8,0.1l-11.2,8
			c-0.4,0.3-0.5,0.8-0.2,1.1c0.2,0.3,0.4,0.4,0.7,0.4c0.2,0,0.3-0.1,0.5-0.2l10.9-7.8l10.5,4.4c0.3,0.1,0.6,0.1,0.8-0.1l8.5-6.7
			C62.4,35.4,62.4,34.9,62.2,34.5z"/>
		<path  fill="#01347B" stroke="none" d="M73.9,62h-3.7V38.8c0-0.5-0.4-0.8-0.8-0.8H62c-0.5,0-0.8,0.4-0.8,0.8V62h-2.7V46.8c0-0.5-0.4-0.8-0.8-0.8h-7.4
			c-0.5,0-0.8,0.4-0.8,0.8V62h-2.7V45.6c0-0.5-0.4-0.8-0.8-0.8h-7.4c-0.5,0-0.8,0.4-0.8,0.8V62h-2.7V50.3c0-0.5-0.4-0.8-0.8-0.8h-7.4
			c-0.5,0-0.8,0.4-0.8,0.8V62h-3.8c-0.5,0-0.8,0.4-0.8,0.8c0,0.5,0.4,0.8,0.8,0.8h51.6c0.5,0,0.8-0.4,0.8-0.8
			C74.7,62.4,74.4,62,73.9,62z M33.4,62h-5.8V51.1h5.8V62z M45.2,62h-5.8V46.4h5.8V62z M56.9,62h-5.8V47.6h5.8V62z M68.6,62h-5.8V39.6h5.8V62z"/>
	</g>
	<linearGradient id="grad" gradientUnits="userSpaceOnUse" x1="-201.375" y1="296.9059" x2="-201.375" y2="297.8232" gradientTransform="matrix(96 0 0 -96 19382 28590)">
		<stop  offset="0" style="stop-color:#01347B"/>
		<stop  offset="1" style="stop-color:#FFFFFF"/>
	</linearGradient>
	<circle class="st1" cx="50" cy="43" r="40" fill="none" stroke="url(#grad)"/>
</svg>
