<?xml version="1.0" encoding="utf-8"?>
<svg version="1.1" 
	 xmlns="http://www.w3.org/2000/svg" 
	 xmlns:xlink="http://www.w3.org/1999/xlink"
	 viewBox="0 0 102 86">
	<linearGradient id="grad" gradientUnits="userSpaceOnUse" x1="-403.25" y1="5.3024" x2="-403.25" y2="4.3851" gradientTransform="matrix(96 0 0 96 38762 -422)">
		<stop  offset="0" style="stop-color:#01347B"/>
		<stop  offset="1" style="stop-color:#FFFFFF"/>
	</linearGradient>
	<circle cx="50" cy="43" r="40" fill="none" stroke="url(#grad)"/>
	<g>
		<path fill="#01347B" stroke="none" d="M49.7,64.1h-3.4c-1.7,0-3.1-1.4-3.1-3.1V39.6c0-1.7,1.4-3.1,3.1-3.1h3.4c1.7,0,3.1,1.4,3.1,3.1V61
			C52.8,62.7,51.4,64.1,49.7,64.1z M46.2,39.3c-0.2,0-0.3,0.2-0.3,0.3V61c0,0.2,0.2,0.3,0.3,0.3h3.4c0.2,0,0.3-0.2,0.3-0.3V39.6
			c0-0.2-0.2-0.3-0.3-0.3H46.2z"/>
		<path fill="#01347B" stroke="none" d="M36.6,64.1h-3.4c-1.7,0-3.1-1.4-3.1-3.1V46.5c0-1.7,1.4-3.1,3.1-3.1h3.4c1.7,0,3.1,1.4,3.1,3.1V61
			C39.7,62.7,38.3,64.1,36.6,64.1z M33.1,46.2c-0.2,0-0.3,0.2-0.3,0.3V61c0,0.2,0.2,0.3,0.3,0.3h3.4c0.2,0,0.3-0.2,0.3-0.3V46.5
			c0-0.2-0.2-0.3-0.3-0.3H33.1z"/>
		<path fill="#01347B" stroke="none" d="M62.7,64.1h-3.4c-1.7,0-3.1-1.4-3.1-3.1V32.4h-1.9c-0.9,0-1.7-0.5-2-1.3c-0.4-0.8-0.2-1.7,0.3-2.4c0,0,0,0,0,0
			l7.4-8.2c0.3-0.3,0.6-0.5,1-0.5c0.4,0,0.8,0.2,1,0.5l7.4,8.2c0,0,0,0,0,0c0.6,0.7,0.7,1.6,0.3,2.4c-0.4,0.8-1.1,1.3-2,1.3h-1.9V61
			C65.8,62.7,64.4,64.1,62.7,64.1z M55.5,29.6h2.1c0.8,0,1.4,0.6,1.4,1.4v30c0,0.2,0.2,0.3,0.3,0.3h3.4c0.2,0,0.3-0.2,0.3-0.3V31
			c0-0.8,0.6-1.4,1.4-1.4h2.1L61,23.4L55.5,29.6z"/>
	</g>
</svg>
