<?xml version="1.0" encoding="utf-8"?>
<svg version="1.1" 
	 xmlns="http://www.w3.org/2000/svg"
	 xmlns:xlink="http://www.w3.org/1999/xlink"
	 viewBox="0 0 102 86">
	<linearGradient id="grad" gradientUnits="userSpaceOnUse" x1="-403.25" y1="5.3024" x2="-403.25" y2="4.3851" gradientTransform="matrix(96 0 0 96 38762 -422)">
		<stop  offset="0" style="stop-color:#01347B"/>
		<stop  offset="1" style="stop-color:#FFFFFF"/>
	</linearGradient>
	<circle class="st0" cx="50" cy="43" r="40" fill="none" stroke="url(#grad)"/>
	<path fill="#01347B" stroke="none" d="M76.4,48.9c-0.1-0.2-0.3-0.4-0.5-0.4l-3.8-1.5l3.9-2.3c0.5-0.3,0.7-0.9,0.4-1.4c-0.1-0.2-0.3-0.4-0.5-0.4
		l-3.8-1.5l3.9-2.3c0.3-0.2,0.5-0.6,0.5-1c0-0.4-0.3-0.7-0.6-0.9l-15-6.1l-7.4-3.1c-0.1,0-0.2-0.1-0.4-0.1l-12-4.9
		c-0.3-0.1-0.6-0.1-0.9,0.1l-16.1,9c-0.5,0.3-0.7,0.9-0.5,1.4c0.1,0.2,0.3,0.4,0.6,0.5l3.9,1.6l-4,2.2c-0.5,0.3-0.7,0.9-0.4,1.4
		c0.1,0.2,0.3,0.4,0.5,0.4l3.9,1.6l-4,2.2c-0.5,0.2-0.8,0.8-0.6,1.4c0.1,0.3,0.3,0.5,0.6,0.6l3.9,1.6l-4,2.2
		c-0.5,0.3-0.7,0.9-0.4,1.4c0.1,0.2,0.3,0.4,0.5,0.4l13.5,5.7c0,0,0.1,0.1,0.2,0.1l7.4,3.1l13.6,5.7c0.3,0.1,0.7,0.1,0.9-0.1L76,56.1
		c0.5-0.3,0.7-0.9,0.4-1.4c-0.1-0.2-0.3-0.4-0.5-0.4l-3.8-1.5l3.9-2.3C76.5,50.1,76.7,49.4,76.4,48.9z M73.1,43.9L59.2,52l-12.5-5.3
		v-3.5l12.1,5.1c0.1,0.1,0.3,0.1,0.4,0.1c0.2,0,0.4-0.1,0.5-0.1l10-5.9L73.1,43.9z M73.2,38.2l-14,8.2l-11.3-4.8l12.8-8.5L73.2,38.2z
	 	M37.2,54.2L27,49.9l3.5-2l6.7,2.8L37.2,54.2z M37.2,48.5L27,44.1l3.5-2l6.7,2.8L37.2,48.5z M37.2,42.8L27,38.4l3.5-2l6.7,2.8
		L37.2,42.8z M27,32.7L40.8,25l10,4.1l-12.6,8.4L27,32.7z M45.1,40.9c-0.3,0.2-0.5,0.5-0.5,0.9v15.6l-5.3-2.2V39.2L53.2,30l5.2,2.1
		L45.1,40.9z M73.1,55.3l-13.9,8.2l-12.5-5.3v-3.5l12.1,5.1c0.3,0.1,0.7,0.1,0.9-0.1l10-5.9L73.1,55.3z M59.2,57.8l-12.5-5.3V49
		l12.1,5.1c0.3,0.1,0.7,0.1,0.9-0.1l10-5.9l3.3,1.4L59.2,57.8z"/>
</svg>
